# xmcd CD database file
#
# Track frame offsets:
#	150
#	9924
#	18757
#	30446
#	39098
#	51553
#	61905
#	62357
#	74729
#	85485
#	100281
#	118142
#
# Disc length: 1822 seconds
#
# Revision: 2
# Processed by: cddbd v1.5PL3 Copyright (c) Steve Scherf et al.
# Submitted via: CDex 1.51
#
DISCID=96071c0c
DTITLE=Chunder Hive - Fat Digester
DYEAR=1992
DGENRE=Garage
TTITLE0=Never seen a mess
TTITLE1=My Bitch
TTITLE2=Wired to the moon
TTITLE3=No release
TTITLE4=Land of Milk and Honey
TTITLE5=Can't hear my radio
TTITLE6=Chunderhive
TTITLE7=Dwane Dibbly
TTITLE8=Magic roundabout
TTITLE9=Afterglow
TTITLE10=Thieving gypsy bastards
TTITLE11=Nipples
EXTD=YEAR: 1992
EXTT0=
EXTT1=
EXTT2=
EXTT3=
EXTT4=
EXTT5=
EXTT6=
EXTT7=
EXTT8=
EXTT9=
EXTT10=
EXTT11=
PLAYORDER=
